<?xml version="1.0" encoding="UTF-8" standalone="no"?>
<!-- Created with Inkscape (http://www.inkscape.org/) -->

<svg
   xmlns:dc="http://purl.org/dc/elements/1.1/"
   xmlns:cc="http://creativecommons.org/ns#"
   xmlns:rdf="http://www.w3.org/1999/02/22-rdf-syntax-ns#"
   xmlns:svg="http://www.w3.org/2000/svg"
   xmlns="http://www.w3.org/2000/svg"
   xmlns:sodipodi="http://sodipodi.sourceforge.net/DTD/sodipodi-0.dtd"
   xmlns:inkscape="http://www.inkscape.org/namespaces/inkscape"
   width="851"
   height="333"
   id="svg2"
   version="1.1"
   inkscape:version="0.48.4 r9939"
   sodipodi:docname="03_orange_2e_trait.svg">
  <defs
     id="defs4" />
  <sodipodi:namedview
     id="base"
     pagecolor="#ffffff"
     bordercolor="#666666"
     borderopacity="1.0"
     inkscape:pageopacity="0.0"
     inkscape:pageshadow="2"
     inkscape:zoom="1.413631"
     inkscape:cx="393.28475"
     inkscape:cy="166.5"
     inkscape:document-units="px"
     inkscape:current-layer="layer1"
     showgrid="false"
     fit-margin-top="0"
     fit-margin-left="0"
     fit-margin-right="0"
     fit-margin-bottom="0"
     inkscape:window-width="1364"
     inkscape:window-height="697"
     inkscape:window-x="0"
     inkscape:window-y="43"
     inkscape:window-maximized="0" />
  <metadata
     id="metadata7">
    <rdf:RDF>
      <cc:Work
         rdf:about="">
        <dc:format>image/svg+xml</dc:format>
        <dc:type
           rdf:resource="http://purl.org/dc/dcmitype/StillImage" />
        <dc:title></dc:title>
      </cc:Work>
    </rdf:RDF>
  </metadata>
  <g
     inkscape:label="Calque 1"
     inkscape:groupmode="layer"
     id="layer1"
     transform="translate(22.642843,-308.7193)">
    <path
       style="fill:#ff6600;stroke:#000000;stroke-width:1px;stroke-linecap:butt;stroke-linejoin:miter;stroke-opacity:1"
       d="m -17.661118,321.46573 321.676928,9.96344 17.08019,-2.8467 56.22229,-15.65684 25.62029,-0.71167 24.19694,4.98172 22.06191,9.96344 38.43043,0 323.10027,0 13.52182,12.81015 -3.55837,59.78066 -9.25177,9.96345 -137.3532,0.71168 -2.13503,7.11674 14.2335,79.70756 3.55837,19.21521 -2.13503,78.99588 -87.53597,1.42335 -9.25177,-5.69339 10.67512,-158.70344 -28.46699,-14.94517 -80.41923,-22.06191 -63.33904,-8.5401 -14.23349,0 -9.96345,12.09847 -26.33196,-4.27005 -60.49234,19.92689 -12.81014,-2.13502 -10.67512,-4.27005 -81.13091,71.87914 -37.71875,40.56545 -33.44871,43.41215 -20.63856,40.56545 -6.40507,27.75531 -109.5978983,-81.1309 91.0943463,-80.41923 67.609102,-50.5289 9.25177,-8.54009 -11.3868,-1.42335 -170.801908,0 -10.67512,-5.6934 z"
       id="path3934"
       inkscape:connector-curvature="0" />
    <path
       style="fill:#00aa00;fill-opacity:1;stroke:none"
       d="M 31.457258,535.82777 124.3308,601.47975 135.53967,580.84119 48.181612,520.34884 z"
       id="path4117"
       inkscape:connector-curvature="0" />
    <path
       style="fill:#00aa00;fill-opacity:1;stroke:none"
       d="m 64.14891,502.32036 16.44398,-14.10562 78.78381,55.43262 -13.00792,19.54989 z"
       id="path4665"
       inkscape:connector-curvature="0" />
    <path
       style="fill:#000000;stroke:none;stroke-opacity:1"
       d="M 58.274616,598.66263 C 26.694986,574.98147 0.50604571,555.2579 0.07696571,554.83248 c -0.42908,-0.42541 6.54591999,-7.49747 15.50000029,-15.71568 45.1327,-41.42357 98.412814,-85.6724 135.056734,-112.16386 6.47713,-4.68259 11.61505,-8.67535 11.4176,-8.87279 -0.19744,-0.19745 -39.66144,-0.83559 -87.697764,-1.41809 l -87.33877,-1.05909 -4.32837,-2.53659 c -2.38061,-1.39513 -4.51071,-2.83162 -4.73357,-3.19221 -0.63059,-1.02031 0.9096,-89.99354 1.56927,-90.65321 0.32198,-0.32197 72.97907,1.71521 161.460214,4.52706 88.48114,2.81186 165.1498,4.91176 170.3748,4.66646 8.05625,-0.37823 14.13519,-1.73949 40,-8.95716 27.22265,-7.59659 31.99497,-8.63994 44.41263,-9.70969 12.45683,-1.07312 14.00544,-1.03267 14.79969,0.38656 0.48788,0.87181 2.03724,1.5851 3.44303,1.5851 6.52002,0 23.5428,6.15666 30.27273,10.94879 2.87896,2.05 3.36583,2.05708 186.84553,2.71857 l 183.95905,0.6632 6.58283,6.39178 6.58283,6.39178 -0.91965,26.69294 c -0.50581,14.68112 -0.97772,29.61794 -1.0487,33.19294 l -0.12904,6.5 -6.8161,6.21064 -6.8161,6.21064 -67.64432,-0.62364 -67.64433,-0.62363 0.52809,2.413 c 0.29046,1.32714 1.23527,6.46299 2.09958,11.41299 2.1482,12.30293 4.72489,24.26104 9.63013,44.69242 l 4.15527,17.30758 -0.23892,54.5 c -0.1314,29.975 -0.45942,54.725 -0.72892,55 -0.26951,0.275 -21.38484,0.6409 -46.92296,0.81311 l -46.43295,0.31311 -6.08052,-3.69372 -6.08053,-3.69373 0.62706,-8.61938 c 0.64767,-8.90272 7.31903,-133.344 7.796,-145.41922 l 0.26859,-6.79982 -8,-3.55554 C 546.69922,412.77176 485.02022,398.60129 427.02915,394.11461 l -8.82796,-0.68301 -6.20367,6.14853 -6.20367,6.14852 -10.96837,-2.04345 c -6.0326,-1.1239 -12.54337,-2.07047 -14.46837,-2.1035 -5.37411,-0.0922 -35.51647,8.89879 -44.5,13.27364 -12.69642,6.18298 -23.07008,6.8018 -33.87806,2.02091 l -4.47282,-1.97854 -13.32456,11.06329 c -55.03615,45.6961 -103.2086,95.28236 -130.11002,133.92858 -20.81065,29.89628 -30.75611,52.65466 -33.24702,76.07971 -0.54486,5.12391 -0.85757,5.75 -2.87197,5.75 -1.42335,0 -23.524874,-15.94586 -59.678044,-43.05666 z m 59.575084,10.48401 c 16.4248,-48.92866 74.77518,-117.89506 159.75741,-188.82304 6.4625,-5.39374 11.75,-10.04139 11.75,-10.32812 0,-0.28673 -2.64282,-3.3465 -5.87292,-6.7995 -5.52732,-5.90871 -13.68194,-18.21967 -17.75661,-26.80699 -1.63108,-3.43746 -2.11574,-3.77065 -4.72559,-3.24868 -8.36836,1.67367 -37.68126,16.07921 -57.14488,28.0833 -47.59119,29.35161 -114.495204,81.97293 -178.500004,140.39376 -6.325,5.77319 -11.85769,10.78807 -12.29486,11.14417 -0.43717,0.35611 21.83521,17.61751 49.49419,38.35866 l 50.289054,37.71119 1.2176,-6.01592 c 0.66969,-3.30876 2.37366,-9.45973 3.78661,-13.66883 z m 538.51625,-15.42735 27.69262,0 0.56614,-38.75 0.56615,-38.75 -4.00446,-7.5 c -6.42294,-12.02964 -14.46784,-22.3813 -26.29063,-33.82911 -19.57099,-18.95027 -50.53866,-38.54926 -50.53866,-31.9852 0,0.52384 -1.80769,34.10629 -4.01709,74.62768 -2.21101,40.55097 -3.62356,73.80641 -3.14181,73.967 0.48141,0.16047 1.72659,0.97513 2.76709,1.81037 1.5644,1.2558 4.21228,1.42263 15.29992,0.96394 7.37446,-0.30507 25.86979,-0.55468 41.10073,-0.55468 z m 18.07302,-142.50904 -5.98526,-35.8077 -3.7983,-3.92924 c -4.64776,-4.80799 -19.66148,-16.13466 -27.7983,-20.97165 -28.75486,-17.09352 -71.44106,-32.1949 -119.40346,-42.24215 -13.54894,-2.83826 -47.82986,-8.54022 -51.34489,-8.54022 l -2.19609,0 2.23174,2.23174 2.23175,2.23175 -20.7506,20.76825 c -15.38077,15.39387 -20.19807,20.76826 -18.61547,20.76826 4.12845,0 23.00013,2.06672 37.34702,4.09003 73.12889,10.31322 135.08366,32.24739 176.56782,62.51123 11.60387,8.46534 28.03147,24.38654 34.38265,33.32275 1.33844,1.8832 2.58723,2.9629 2.77508,2.39933 0.18786,-0.56357 -2.3518,-17.13814 -5.64369,-36.83238 z M 330.8156,407.81434 c 3.43591,-1.69149 9.07807,-5.6792 12.53812,-8.86157 l 6.29102,-5.78612 -16.89382,-26.27542 c -9.29159,-14.45149 -17.27322,-26.32322 -17.73694,-26.38164 -0.46372,-0.0584 -10.66171,5.6828 -22.6622,12.75826 l -21.81906,12.86447 2.52506,5.04348 c 17.32938,34.61319 36.79265,46.95966 57.75782,36.63854 z m -147.94781,-3.78441 c 22.20679,-14.89924 57.43883,-33.77257 70.73932,-37.89409 3.1625,-0.97999 5.75898,-2.26211 5.76996,-2.84917 0.011,-0.58706 9.21913,-6.46738 20.46256,-13.06738 14.63869,-8.59305 19.95639,-12.18534 18.73004,-12.65279 -2.01954,-0.76981 -310.002094,-10.39102 -310.687404,-9.70571 -0.25695,0.25696 -0.77633,17.80974 -1.15416,39.00619 -0.5808,32.58267 -0.46936,38.67912 0.72101,39.44565 1.44525,0.93065 55.607,1.7702 140.418674,2.1766 l 48.01067,0.23006 6.98933,-4.68936 z m 630.29477,0.93665 4.30545,-3.74729 0.99466,-29.5 0.99467,-29.5 -3.9924,-3.58466 -3.99241,-3.58465 -96.22321,-0.66535 c -102.56023,-0.70916 -225.70327,-0.71293 -222.39221,-0.007 1.1,0.23459 8.075,1.5551 15.5,2.93447 72.07943,13.39049 130.64689,37.30795 160.57809,65.57602 l 5.07808,4.79592 25.42192,0.2855 c 13.98205,0.15702 44.32191,0.38869 67.42191,0.51482 l 42,0.22934 4.30545,-3.7473 z m -446.74501,-9.2902 3.56044,-0.93209 1.70713,-20.7625 c 0.93892,-11.41938 1.88382,-23.2375 2.09978,-26.2625 0.21596,-3.025 0.93693,-9.90862 1.60216,-15.29694 0.66523,-5.38832 0.97646,-10.02998 0.69163,-10.31482 -0.28484,-0.28483 -9.00122,1.79234 -19.36973,4.61595 -31.0846,8.46511 -32.57952,8.96013 -31.9571,10.58214 0.30669,0.79922 8.13381,13.25675 17.3936,27.6834 9.2598,14.42665 17.18959,26.82113 17.62178,27.54328 0.47287,0.79014 0.0499,2.144 -1.06217,3.39974 -1.83427,2.07127 -1.82574,2.0815 1.15204,1.38158 1.65,-0.38783 4.6022,-1.12458 6.56044,-1.63723 z m 63.09744,-25.20709 26.98758,-26.25 -6.38712,-6 c -7.72448,-7.25631 -15.14321,-11.78424 -24.92342,-15.2117 -5.9115,-2.07168 -9.80303,-2.66292 -20.05314,-3.04666 -6.99502,-0.26188 -14.22144,-0.19414 -16.05871,0.15053 l -3.3405,0.62668 -3.22746,35.62107 c -1.77511,19.59158 -3.09868,35.73219 -2.94129,35.86801 0.1574,0.13582 5.23618,1.14387 11.28618,2.24011 6.05,1.09624 11.15082,2.0514 11.33515,2.12256 0.18433,0.0712 12.47956,-11.6831 27.32273,-26.1206 z"
       id="path3145"
       inkscape:connector-curvature="0" />
  </g>
</svg>
