<?xml version="1.0" encoding="UTF-8" standalone="no"?>
<!-- Created with Inkscape (http://www.inkscape.org/) -->

<svg
   xmlns:dc="http://purl.org/dc/elements/1.1/"
   xmlns:cc="http://creativecommons.org/ns#"
   xmlns:rdf="http://www.w3.org/1999/02/22-rdf-syntax-ns#"
   xmlns:svg="http://www.w3.org/2000/svg"
   xmlns="http://www.w3.org/2000/svg"
   xmlns:sodipodi="http://sodipodi.sourceforge.net/DTD/sodipodi-0.dtd"
   xmlns:inkscape="http://www.inkscape.org/namespaces/inkscape"
   version="1.1"
   id="svg2"
   xml:space="preserve"
   width="385.49893"
   height="388.54666"
   viewBox="0 0 385.49892 388.54665"
   sodipodi:docname="interactive_doc.svg"
   inkscape:version="0.92.2 5c3e80d, 2017-08-06"><metadata
     id="metadata8"><rdf:RDF><cc:Work
         rdf:about=""><dc:format>image/svg+xml</dc:format><dc:type
           rdf:resource="http://purl.org/dc/dcmitype/StillImage" /><dc:title></dc:title></cc:Work></rdf:RDF></metadata><defs
     id="defs6" /><sodipodi:namedview
     pagecolor="#ffffff"
     bordercolor="#666666"
     borderopacity="1"
     objecttolerance="10"
     gridtolerance="10"
     guidetolerance="10"
     inkscape:pageopacity="0"
     inkscape:pageshadow="2"
     inkscape:window-width="1920"
     inkscape:window-height="1012"
     id="namedview4"
     showgrid="false"
     fit-margin-top="0"
     fit-margin-left="0"
     fit-margin-right="0"
     fit-margin-bottom="0"
     inkscape:zoom="1.0216971"
     inkscape:cx="175.48645"
     inkscape:cy="95.804604"
     inkscape:window-x="0"
     inkscape:window-y="40"
     inkscape:window-maximized="1"
     inkscape:current-layer="g10" /><g
     id="g10"
     inkscape:groupmode="layer"
     inkscape:label="ink_ext_XXXXXX"
     transform="matrix(1.3333333,0,0,-1.3333333,-86.913064,1238.9226)"><path
       inkscape:connector-curvature="0"
       id="path54"
       style="fill:#afdde9;fill-opacity:1;fill-rule:nonzero;stroke:none;stroke-width:0.1"
       d="M 317.275,637.782 H 102.218 c -20.3684,0 -37.0332,16.665 -37.0332,37.034 v 217.342 c 0,20.369 16.6648,37.034 37.0332,37.034 h 215.057 c 20.368,0 37.034,-16.665 37.034,-37.034 V 674.816 c 0,-20.369 -16.666,-37.034 -37.034,-37.034" /><polygon
       style="fill:#ffffff;fill-opacity:1"
       points="33.222,0 2.222,0 2.222,58 47.222,58 47.222,14 "
       id="polygon2"
       transform="matrix(3.8902883,0,0,-3.7445306,107.13077,895.43757)" /><g
       id="g14"
       transform="matrix(3.8902883,0,0,-3.7445306,107.13077,895.43757)"
       style="fill:#87cdde"><path
         style="fill:#87cdde"
         d="m 12.222,23 h 25 c 0.552,0 1,-0.447 1,-1 0,-0.553 -0.448,-1 -1,-1 h -25 c -0.552,0 -1,0.447 -1,1 0,0.553 0.447,1 1,1 z"
         id="path4"
         inkscape:connector-curvature="0" /><path
         style="fill:#87cdde"
         d="m 12.222,15 h 10 c 0.552,0 1,-0.447 1,-1 0,-0.553 -0.448,-1 -1,-1 h -10 c -0.552,0 -1,0.447 -1,1 0,0.553 0.447,1 1,1 z"
         id="path6"
         inkscape:connector-curvature="0" /><path
         style="fill:#87cdde"
         d="m 37.222,29 h -25 c -0.552,0 -1,0.447 -1,1 0,0.553 0.448,1 1,1 h 25 c 0.552,0 1,-0.447 1,-1 0,-0.553 -0.448,-1 -1,-1 z"
         id="path8"
         inkscape:connector-curvature="0" /><path
         style="fill:#87cdde"
         d="m 37.222,37 h -25 c -0.552,0 -1,0.447 -1,1 0,0.553 0.448,1 1,1 h 25 c 0.552,0 1,-0.447 1,-1 0,-0.553 -0.448,-1 -1,-1 z"
         id="path10"
         inkscape:connector-curvature="0" /><path
         style="fill:#87cdde"
         d="m 37.222,45 h -25 c -0.552,0 -1,0.447 -1,1 0,0.553 0.448,1 1,1 h 25 c 0.552,0 1,-0.447 1,-1 0,-0.553 -0.448,-1 -1,-1 z"
         id="path12"
         inkscape:connector-curvature="0" /></g><polygon
       style="fill:#87cdde"
       points="33.222,14 47.222,14 33.222,0 "
       id="polygon16"
       transform="matrix(3.8902883,0,0,-3.7445306,107.13077,895.43757)" /><g
       transform="matrix(3.8226662,0,0,-3.8259225,113.59364,893.42606)"
       id="g22"
       style="fill:#164450"><path
         inkscape:connector-curvature="0"
         id="path20"
         d="m 55.485,55.293 -6.797,-6.797 6.483,-3.241 -17.637,-6.498 6.499,17.637 3.241,-6.484 6.797,6.797 c 0.196,0.195 0.451,0.293 0.707,0.293 0.256,0 0.512,-0.098 0.707,-0.293 0.391,-0.391 0.391,-1.023 0,-1.414 z"
         style="fill:#164450" /></g></g></svg>