<?xml version="1.0" encoding="UTF-8" standalone="no"?>
<!-- Created with Inkscape (http://www.inkscape.org/) -->

<svg
   xmlns:dc="http://purl.org/dc/elements/1.1/"
   xmlns:cc="http://creativecommons.org/ns#"
   xmlns:rdf="http://www.w3.org/1999/02/22-rdf-syntax-ns#"
   xmlns:svg="http://www.w3.org/2000/svg"
   xmlns="http://www.w3.org/2000/svg"
   xmlns:sodipodi="http://sodipodi.sourceforge.net/DTD/sodipodi-0.dtd"
   xmlns:inkscape="http://www.inkscape.org/namespaces/inkscape"
   id="svg2095"
   sodipodi:docname="jaune_2e_trait.svg"
   viewBox="0 0 712.09 444.36"
   sodipodi:version="0.32"
   version="1.0"
   inkscape:version="0.48.4 r9939"
   width="100%"
   height="100%">
  <defs
     id="defs4192" />
  <sodipodi:namedview
     id="base"
     bordercolor="#666666"
     inkscape:pageshadow="2"
     inkscape:window-width="1364"
     pagecolor="#ffffff"
     width="712.09px"
     inkscape:zoom="1.1626164"
     inkscape:window-x="0"
     height="444.36px"
     borderopacity="1.0"
     inkscape:current-layer="layer1"
     inkscape:cx="357.14811"
     inkscape:cy="226.28776"
     inkscape:window-y="43"
     inkscape:window-height="697"
     inkscape:pageopacity="0.0"
     inkscape:document-units="px"
     showgrid="false"
     inkscape:window-maximized="1" />
  <g
     id="layer1"
     inkscape:label="Calque 1"
     inkscape:groupmode="layer">
    <g
       id="g2164"
       style="fill:#ffd42a"
       transform="translate(-20,-260)">
      <path
         id="path2031"
         sodipodi:nodetypes="cscscc"
         style="color:black;stroke:black;stroke-width:3.29000000000000004;fill:#ffd42a"
         d="m30.014 279.4s318.35-0.63 326.15 3.27c7.81 3.9 37.71 6.5 37.71 6.5s-28.6 3.9-44.21 24.71c-15.6 20.8-29.9 40.3-29.9 40.3l-289.83 1.04" />
      <path
         id="path3808"
         sodipodi:nodetypes="csscc"
         style="color:black;stroke:black;stroke-width:3.29000000000000004;fill:#ffd42a"
         d="m345.81 318.36c19.37-27.98 41.61-25.11 48.78-28.7 7.17-3.58 22.96 43.76 7.17 53.09-15.78 9.33-53.8 43.04-53.8 43.04l-0.72 1.44" />
      <path
         id="path6433"
         sodipodi:nodetypes="csssscc"
         style="color:black;stroke:black;stroke-width:3.29000000000000004;fill:#ffd42a"
         d="m475.66 309.75c-7.9-30.13 7.89-37.3-24.4-35.15-32.28 2.15-53.08-2.87-54.52 8.61-1.43 11.48-10.04 66.71 9.33 74.61 19.37 7.89 80.35 38.74 82.5 24.39s-7.89-19.37-7.89-19.37l-5.02-53.09z" />
      <path
         id="path6443"
         sodipodi:nodetypes="cccc"
         style="color:black;stroke:black;stroke-width:3.23439999999999994;fill:#ffd42a"
         d="m722.89 359.52l-210.01 0.57 1.44-82.65 210.07 1.28" />
      <path
         id="path6437"
         style="color:black;stroke:black;stroke-width:3.29000000000000004;fill:#ffd42a"
         d="m472.79 288.23s88.24 22.96 84.65 31.56c-3.59 8.61-25.11 61.7-35.87 59.55s-40.89-10.05-42.33-17.22c-1.43-7.17-5.74-73.17-6.45-73.89z" />
      <path
         id="path6439"
         sodipodi:nodetypes="csscc"
         style="color:black;stroke:black;stroke-width:3.29000000000000004;fill:#ffd42a"
         d="m550.98 314.05s78.81-8.93 68.87-17.21c-12.91-10.76-62.41-39.46-77.48-35.16-15.06 4.31-60.98 28.7-60.98 28.7l69.59 23.67z" />
      <path
         id="path6435"
         sodipodi:nodetypes="csscsc"
         style="color:black;stroke:black;stroke-width:3.29000000000000004;fill:#ffd42a"
         d="m637.79 657.17s1.43-316.57-2.15-321.59c-3.59-5.02-1.44-49.5-36.59-38.03-35.15 11.48-47.35 16.5-47.35 16.5s15.78-9.32 17.22 5.74c1.43 15.07-7.02 337.23-7.02 337.23" />
      <path
         id="path2933"
         sodipodi:nodetypes="cssc"
         style="color:black;stroke:black;stroke-width:3.29000000000000004;fill:#ffd42a"
         d="m270.84 694.46s4.63-216.62 2.82-237.51c-2.42-27.98 63.72-134.64 71.52-137.25 7.8-2.6 5.2 375.2 5.2 375.2" />
    </g>
    <path
       style="fill:none;stroke:#ff7f2a;stroke-width:26.54294395000000151px;stroke-linecap:butt;stroke-linejoin:miter;stroke-opacity:1"
       d="m 329.00864,322.23548 -74.20877,-0.0902"
       id="path4326"
       inkscape:connector-curvature="0"
       inkscape:transform-center-x="-1.3292429"
       inkscape:transform-center-y="0.36128494" />
    <path
       style="fill:none;stroke:#ff7f2a;stroke-width:26.54294395000000151px;stroke-linecap:butt;stroke-linejoin:miter;stroke-opacity:1"
       d="m 328.68807,365.27325 -74.20877,-0.0902"
       id="path4326-3"
       inkscape:connector-curvature="0"
       inkscape:transform-center-x="-1.3292429"
       inkscape:transform-center-y="0.36128494" />
  </g>
  <metadata
     id="metadata4190">
    <rdf:RDF>
      <cc:Work>
        <dc:format>image/svg+xml</dc:format>
        <dc:type
           rdf:resource="http://purl.org/dc/dcmitype/StillImage" />
        <cc:license
           rdf:resource="http://creativecommons.org/licenses/publicdomain/" />
        <dc:publisher>
          <cc:Agent
             rdf:about="http://openclipart.org/">
            <dc:title>Openclipart</dc:title>
          </cc:Agent>
        </dc:publisher>
        <dc:title></dc:title>
        <dc:date>2007-04-13T12:16:24</dc:date>
        <dc:description>A karate / judo / martial arts belt</dc:description>
        <dc:source>https://openclipart.org/detail/3927/karate-belt-by-geant</dc:source>
        <dc:creator>
          <cc:Agent>
            <dc:title>geant</dc:title>
          </cc:Agent>
        </dc:creator>
        <dc:subject>
          <rdf:Bag>
            <rdf:li>belt</rdf:li>
            <rdf:li>ceinture</rdf:li>
            <rdf:li>fight</rdf:li>
            <rdf:li>japan</rdf:li>
            <rdf:li>judo</rdf:li>
            <rdf:li>karate</rdf:li>
            <rdf:li>martial art</rdf:li>
            <rdf:li>sport</rdf:li>
          </rdf:Bag>
        </dc:subject>
      </cc:Work>
      <cc:License
         rdf:about="http://creativecommons.org/licenses/publicdomain/">
        <cc:permits
           rdf:resource="http://creativecommons.org/ns#Reproduction" />
        <cc:permits
           rdf:resource="http://creativecommons.org/ns#Distribution" />
        <cc:permits
           rdf:resource="http://creativecommons.org/ns#DerivativeWorks" />
      </cc:License>
    </rdf:RDF>
  </metadata>
</svg>
