<?xml version="1.0" encoding="UTF-8" standalone="no"?>
<!-- Created with Inkscape (http://www.inkscape.org/) -->

<svg
   xmlns:dc="http://purl.org/dc/elements/1.1/"
   xmlns:cc="http://creativecommons.org/ns#"
   xmlns:rdf="http://www.w3.org/1999/02/22-rdf-syntax-ns#"
   xmlns:svg="http://www.w3.org/2000/svg"
   xmlns="http://www.w3.org/2000/svg"
   xmlns:sodipodi="http://sodipodi.sourceforge.net/DTD/sodipodi-0.dtd"
   xmlns:inkscape="http://www.inkscape.org/namespaces/inkscape"
   version="1.1"
   id="svg2"
   xml:space="preserve"
   width="385.49893"
   height="388.54666"
   viewBox="0 0 385.49892 388.54665"
   sodipodi:docname="printer_shadowless.svg"
   inkscape:version="0.92.2 5c3e80d, 2017-08-06"><metadata
     id="metadata8"><rdf:RDF><cc:Work
         rdf:about=""><dc:format>image/svg+xml</dc:format><dc:type
           rdf:resource="http://purl.org/dc/dcmitype/StillImage" /><dc:title /></cc:Work></rdf:RDF></metadata><defs
     id="defs6" /><sodipodi:namedview
     pagecolor="#ffffff"
     bordercolor="#666666"
     borderopacity="1"
     objecttolerance="10"
     gridtolerance="10"
     guidetolerance="10"
     inkscape:pageopacity="0"
     inkscape:pageshadow="2"
     inkscape:window-width="1920"
     inkscape:window-height="1012"
     id="namedview4"
     showgrid="false"
     fit-margin-top="0"
     fit-margin-left="0"
     fit-margin-right="0"
     fit-margin-bottom="0"
     inkscape:zoom="0.51084855"
     inkscape:cx="-145.73411"
     inkscape:cy="127.98053"
     inkscape:window-x="0"
     inkscape:window-y="40"
     inkscape:window-maximized="1"
     inkscape:current-layer="g10" /><g
     id="g10"
     inkscape:groupmode="layer"
     inkscape:label="ink_ext_XXXXXX"
     transform="matrix(1.3333333,0,0,-1.3333333,-86.913064,1238.9226)"><path
       inkscape:connector-curvature="0"
       id="path54"
       style="fill:#afdde9;fill-opacity:1;fill-rule:nonzero;stroke:none;stroke-width:0.1"
       d="M 317.275,637.782 H 102.218 c -20.3684,0 -37.0332,16.665 -37.0332,37.034 v 217.342 c 0,20.369 16.6648,37.034 37.0332,37.034 h 215.057 c 20.368,0 37.034,-16.665 37.034,-37.034 V 674.816 c 0,-20.369 -16.666,-37.034 -37.034,-37.034" /><g
       id="g2821"
       transform="matrix(1.3449029,0,0,1.26415,-73.810322,-204.02178)"><path
         d="m 178.615,726.451 h 62.262 v -10.388 h -62.262 z m 0,20.711 h 62.262 v -10.388 h -62.262 z m -10.387,-10.388 v -31.099 h 83.037 v 51.875 h -83.037 v -20.776"
         style="fill:#ffffff;fill-opacity:1;fill-rule:nonzero;stroke:none;stroke-width:0.1"
         id="path58"
         inkscape:connector-curvature="0" /><path
         d="m 251.265,830.2 v 31.099 h -83.037 v -51.875 h 83.037 V 830.2"
         style="fill:#ffffff;fill-opacity:1;fill-rule:nonzero;stroke:none;stroke-width:0.1"
         id="path60"
         inkscape:connector-curvature="0" /><path
         d="M 271.976,830.2 H 261.588 V 799.036 H 157.84 V 830.2 h -10.323 c -10.388,0 -20.776,-10.388 -20.776,-20.776 V 757.55 c 0,-10.388 10.388,-20.776 20.776,-20.776 h 10.323 v 31.164 h 103.748 v -31.164 h 10.388 c 10.388,0 20.776,10.388 20.776,20.776 v 51.874 c 0,10.388 -10.388,20.776 -20.776,20.776"
         style="fill:#ffffff;fill-opacity:1;fill-rule:nonzero;stroke:none;stroke-width:0.1"
         id="path62"
         inkscape:connector-curvature="0" /></g></g></svg>