<?xml version="1.0" encoding="UTF-8" standalone="no"?>
<!-- Generator: Adobe Illustrator 16.0.0, SVG Export Plug-In . SVG Version: 6.00 Build 0)  -->

<svg
   xmlns:dc="http://purl.org/dc/elements/1.1/"
   xmlns:cc="http://creativecommons.org/ns#"
   xmlns:rdf="http://www.w3.org/1999/02/22-rdf-syntax-ns#"
   xmlns:svg="http://www.w3.org/2000/svg"
   xmlns="http://www.w3.org/2000/svg"
   xmlns:sodipodi="http://sodipodi.sourceforge.net/DTD/sodipodi-0.dtd"
   xmlns:inkscape="http://www.inkscape.org/namespaces/inkscape"
   version="1.1"
   id="Capa_1"
   x="0px"
   y="0px"
   width="32.236px"
   height="32.236px"
   viewBox="0 0 32.236 32.236"
   style="enable-background:new 0 0 32.236 32.236;"
   xml:space="preserve"
   inkscape:version="0.48.4 r9939"
   sodipodi:docname="pupil_red_blueglasses.svg"><metadata
     id="metadata45"><rdf:RDF><cc:Work
         rdf:about=""><dc:format>image/svg+xml</dc:format><dc:type
           rdf:resource="http://purl.org/dc/dcmitype/StillImage" /><dc:title></dc:title></cc:Work></rdf:RDF></metadata><defs
     id="defs43"><inkscape:path-effect
       effect="spiro"
       id="path-effect3269"
       is_visible="true" /><inkscape:perspective
       sodipodi:type="inkscape:persp3d"
       inkscape:vp_x="0 : 16.118 : 1"
       inkscape:vp_y="0 : 1000 : 0"
       inkscape:vp_z="32.236 : 16.118 : 1"
       inkscape:persp3d-origin="16.118 : 10.745333 : 1"
       id="perspective3249" /><inkscape:path-effect
       effect="spiro"
       id="path-effect3247"
       is_visible="true" /><clipPath
       clipPathUnits="userSpaceOnUse"
       id="clipPath3067"><rect
         style="fill:#483737;fill-opacity:1;stroke:#eed7f4;stroke-width:0;stroke-linejoin:round;stroke-miterlimit:4;stroke-opacity:1;stroke-dasharray:none"
         id="rect3069"
         width="11.549477"
         height="3.4267678"
         x="11.168724"
         y="7.6774979" /></clipPath><clipPath
       clipPathUnits="userSpaceOnUse"
       id="clipPath3067-5"><rect
         style="fill:#483737;fill-opacity:1;stroke:#eed7f4;stroke-width:0;stroke-linejoin:round;stroke-miterlimit:4;stroke-opacity:1;stroke-dasharray:none"
         id="rect3069-3"
         width="11.549477"
         height="3.4267678"
         x="11.168724"
         y="7.6774979" /></clipPath><clipPath
       clipPathUnits="userSpaceOnUse"
       id="clipPath3114"><rect
         style="fill:#3771c8;fill-opacity:1;stroke:#eed7f4;stroke-width:0;stroke-linejoin:round;stroke-miterlimit:4;stroke-opacity:1;stroke-dasharray:none"
         id="rect3116"
         width="11.39083"
         height="3.244324"
         x="11.240115"
         y="7.7568216" /></clipPath><clipPath
       clipPathUnits="userSpaceOnUse"
       id="clipPath3161"><rect
         style="fill:#5f8dd3;fill-opacity:1;stroke:#eed7f4;stroke-width:0;stroke-linejoin:round;stroke-miterlimit:4;stroke-opacity:1;stroke-dasharray:none"
         id="rect3163"
         width="2.0248513"
         height="1.3068985"
         x="9.2155972"
         y="8.594039" /></clipPath><clipPath
       clipPathUnits="userSpaceOnUse"
       id="clipPath3217"><rect
         style="fill:#5f8dd3;fill-opacity:1;stroke:#eed7f4;stroke-width:0;stroke-linejoin:round;stroke-miterlimit:4;stroke-opacity:1;stroke-dasharray:none"
         id="rect3219"
         width="2.1843719"
         height="0.87859404"
         x="10.52519"
         y="7.1908007"
         transform="matrix(0.98962168,0.14369736,-0.16534193,0.9862363,0,0)" /></clipPath><clipPath
       clipPathUnits="userSpaceOnUse"
       id="clipPath3217-7"><rect
         style="fill:#5f8dd3;fill-opacity:1;stroke:#eed7f4;stroke-width:0;stroke-linejoin:round;stroke-miterlimit:4;stroke-opacity:1;stroke-dasharray:none"
         id="rect3219-0"
         width="2.1843719"
         height="0.87859404"
         x="10.52519"
         y="7.1908007"
         transform="matrix(0.98962168,0.14369736,-0.16534193,0.9862363,0,0)" /></clipPath><clipPath
       clipPathUnits="userSpaceOnUse"
       id="clipPath4059"><path
         style="fill:#2ca02c;fill-opacity:1;stroke:none"
         d="M 10.324219,8.4391251 C 9.8515626,8.3844376 9.7929688,8.4117813 9.6210938,8.4156876 c -0.1346601,0.00306 -0.3515625,0.019531 -0.40625,0.1914062 -0.050943,0.1601051 -0.074219,0.2578125 -0.054687,0.5039063 0.019531,0.2460937 0.019531,0.1875 0.085937,0.390625 0.066406,0.203125 0.9023452,0.34375 0.9023452,0.34375 l 0.253906,0.035156 c 0,0 -0.5195325,-0.015625 0.09766,0.00391 0.617188,0.019531 0.691406,-0.011719 0.710938,-0.058594 0.01953,-0.046875 0.02344,-0.042969 0.02344,-0.042969 l 0,-0.8828125 c 0,0 0.02344,-0.050781 -0.03906,-0.082031 -0.0625,-0.03125 -0.433594,-0.2382812 -0.433594,-0.2382812 z"
         id="path4061"
         inkscape:connector-curvature="0"
         sodipodi:nodetypes="cssssccscccscc" /></clipPath><clipPath
       clipPathUnits="userSpaceOnUse"
       id="clipPath4059-3"><path
         style="fill:#2ca02c;fill-opacity:1;stroke:none"
         d="M 10.324219,8.4391251 C 9.8515626,8.3844376 9.7929688,8.4117813 9.6210938,8.4156876 c -0.1346601,0.00306 -0.3515625,0.019531 -0.40625,0.1914062 -0.050943,0.1601051 -0.074219,0.2578125 -0.054687,0.5039063 0.019531,0.2460937 0.019531,0.1875 0.085937,0.390625 0.066406,0.203125 0.9023452,0.34375 0.9023452,0.34375 l 0.253906,0.035156 c 0,0 -0.5195325,-0.015625 0.09766,0.00391 0.617188,0.019531 0.691406,-0.011719 0.710938,-0.058594 0.01953,-0.046875 0.02344,-0.042969 0.02344,-0.042969 l 0,-0.8828125 c 0,0 0.02344,-0.050781 -0.03906,-0.082031 -0.0625,-0.03125 -0.433594,-0.2382812 -0.433594,-0.2382812 z"
         id="path4061-6"
         inkscape:connector-curvature="0"
         sodipodi:nodetypes="cssssccscccscc" /></clipPath><clipPath
       clipPathUnits="userSpaceOnUse"
       id="clipPath4113"><path
         style="fill:#aaeeff;fill-opacity:1;stroke:none"
         d="m 22.627417,8.9290976 0,0.8838835 0.07182,0.07734 0.685009,0.07734 0.580049,-0.143631 0.276213,-0.1933495 c 0,0 -0.121534,0.3977474 0.05524,-0.07734 0.176777,-0.4750874 -0.01657,-0.8838835 -0.01657,-0.8838835 l -0.171252,-0.1104855 -0.900456,0.00552 -0.370127,0.1988738 z"
         id="path4115"
         inkscape:connector-curvature="0" /></clipPath><clipPath
       clipPathUnits="userSpaceOnUse"
       id="clipPath4179"><path
         style="fill:#552200;fill-opacity:1;stroke:none"
         d="m 7.2036503,10.779729 0.5303301,0.37565 1.8340582,0.220971 0.243068,-0.265165 L 9.5901357,10.69134 9.3470678,9.6085831 9.3249707,8.4595346 9.3912619,8.304855 10.054175,8.2164666 10.717087,8.0396899 11.070641,7.8187191 11.203223,7.7082336 12.087107,7.3325831 13.965359,5.8741754 14.142136,4.747224 l 2.717941,1.3037281 3.447146,0.5966214 3.049398,0.2430679 0.508233,0.5966214 0.353553,1.0827572 0.04419,0.508233 -0.06629,0.751301 -0.176777,0.928078 0,0.265165 0.729204,-0.06629 1.281631,-0.309359 0,-0.353553 L 25.477941,5.9404667 23.113553,1.9187969 19.821087,0.21732117 18.384776,0.06264156 16.683301,-0.0036497 14.075844,0.01844739 12.529048,0.63716582 11.424194,0.92442795 9.4354561,1.7641172 7.9549513,3.8854376 6.6733202,6.4045055 c 0,0 -0.3093592,3.2703689 -0.265165,3.4029514 0.044194,0.1325825 0.7954951,0.9722721 0.7954951,0.9722721 z"
         id="path4181"
         inkscape:connector-curvature="0" /></clipPath></defs><sodipodi:namedview
     pagecolor="#ffffff"
     bordercolor="#666666"
     borderopacity="1"
     objecttolerance="10"
     gridtolerance="10"
     guidetolerance="10"
     inkscape:pageopacity="0"
     inkscape:pageshadow="2"
     inkscape:window-width="1364"
     inkscape:window-height="697"
     id="namedview41"
     showgrid="false"
     inkscape:zoom="11.313709"
     inkscape:cx="20.275492"
     inkscape:cy="18.979744"
     inkscape:window-x="0"
     inkscape:window-y="43"
     inkscape:window-maximized="0"
     inkscape:current-layer="Capa_1"
     showguides="true"
     inkscape:guide-bbox="true" /><path
     d="M 7.414,10.79 9.56,11.159 C 9.397,10.628 9.289,10.071 9.244,9.496 l 1.995,0.287 v 1.219 h 5.234 V 10.14 h 0.924 v 0.862 H 22.63 V 9.814 l 1.666,-0.258 c -0.018,0.404 -0.069,0.832 -0.148,1.264 l 1.658,-0.312 C 25.452,6.045 23.743,0 16.645,0 15.637,0 14.462,0.124 13.952,0.354 13.44,0.583 13.348,1.106 13.018,1.217 12.674,1.333 12.186,1.286 11.883,1.433 7.155,3.71 7.32,9.261 7.32,9.261 l 0.094,1.529 z m 8.478,-0.37 H 11.82 V 8.347 h 4.072 v 2.073 z m 6.156,0 h -4.07 V 8.347 h 4.07 V 10.42 z M 9.271,8.166 c 2.104,-0.143 4.48,-1.8 4.665,-4.108 2.663,2.205 6.437,2.313 9.581,2.594 0.393,0.184 0.679,0.975 0.76,2.023 L 22.63,8.93 V 7.766 H 17.396 V 8.977 H 16.472 V 7.766 H 11.238 V 8.901 L 9.216,8.61 C 9.235,8.463 9.254,8.316 9.271,8.166 z"
     id="path7"
     inkscape:connector-curvature="0"
     clip-path="url(#clipPath4179)"
     style="fill:#ff6600" /><path
     d="m 29.216,21.348 c 0,-1.089 -0.438,-2.039 -1.09,-2.582 v -7.774 l -11.862,1.89 -11.866,-1.89 v 7.569 c -0.811,0.481 -1.377,1.545 -1.377,2.787 0,1.241 0.566,2.305 1.377,2.786 v 6.212 l 11.866,1.891 11.862,-1.889 V 23.93 c 0.653,-0.545 1.09,-1.494 1.09,-2.582 z M 15.725,31.061 5.475,29.428 v -5.033 c 1.235,-0.08 2.221,-1.408 2.221,-3.047 0,-1.64 -0.985,-2.968 -2.221,-3.049 v -6.046 l 10.25,1.634 V 31.061 z M 27.05,29.428 16.801,31.061 V 13.887 L 27.05,12.253 v 2.166 3.888 c -0.059,-0.006 -0.112,-0.021 -0.172,-0.021 -1.291,0 -2.338,1.372 -2.338,3.062 0,1.691 1.047,3.063 2.338,3.063 0.06,0 0.113,-0.017 0.172,-0.022 v 5.039 z"
     id="path9"
     inkscape:connector-curvature="0"
     style="fill:#483737" /><g
     id="g11" /><g
     id="g13" /><g
     id="g15" /><g
     id="g17" /><g
     id="g19" /><g
     id="g21" /><g
     id="g23" /><g
     id="g25" /><g
     id="g27" /><g
     id="g29" /><g
     id="g31" /><g
     id="g33" /><g
     id="g35" /><g
     id="g37" /><g
     id="g39" /><path
     sodipodi:type="arc"
     style="fill:#ffccaa;fill-opacity:1;stroke:#eed7f4;stroke-width:0;stroke-linejoin:round;stroke-miterlimit:4;stroke-opacity:1;stroke-dasharray:none"
     id="path3118-3"
     sodipodi:cx="22.051201"
     sodipodi:cy="21.622868"
     sodipodi:rx="2.3478975"
     sodipodi:ry="2.5224035"
     d="m 24.399098,21.622868 a 2.3478975,2.5224035 0 1 1 -4.695795,0 2.3478975,2.5224035 0 1 1 4.695795,0 z"
     transform="matrix(1.0561154,0,0,1.2273744,-17.961478,-5.1966634)" /><path
     sodipodi:type="arc"
     style="fill:#ffccaa;fill-opacity:1;stroke:#eed7f4;stroke-width:0;stroke-linejoin:round;stroke-miterlimit:4;stroke-opacity:1;stroke-dasharray:none"
     id="path3118-3-6"
     sodipodi:cx="22.051201"
     sodipodi:cy="21.622868"
     sodipodi:rx="2.3478975"
     sodipodi:ry="2.5224035"
     d="m 24.399098,21.622868 a 2.3478975,2.5224035 0 1 1 -4.695795,0 2.3478975,2.5224035 0 1 1 4.695795,0 z"
     transform="matrix(1.0561154,0,0,1.2273744,3.551955,-5.162515)" /><path
     transform="translate(-0.0079322,-0.0039664)"
     d="M 7.414,10.79 9.56,11.159 C 9.397,10.628 9.289,10.071 9.244,9.496 l 1.995,0.287 v 1.219 h 5.234 V 10.14 h 0.924 v 0.862 H 22.63 V 9.814 l 1.666,-0.258 c -0.018,0.404 -0.069,0.832 -0.148,1.264 l 1.658,-0.312 C 25.452,6.045 23.743,0 16.645,0 15.637,0 14.462,0.124 13.952,0.354 13.44,0.583 13.348,1.106 13.018,1.217 12.674,1.333 12.186,1.286 11.883,1.433 7.155,3.71 7.32,9.261 7.32,9.261 l 0.094,1.529 z m 8.478,-0.37 H 11.82 V 8.347 h 4.072 v 2.073 z m 6.156,0 h -4.07 V 8.347 h 4.07 V 10.42 z M 9.271,8.166 c 2.104,-0.143 4.48,-1.8 4.665,-4.108 2.663,2.205 6.437,2.313 9.581,2.594 0.393,0.184 0.679,0.975 0.76,2.023 L 22.63,8.93 V 7.766 H 17.396 V 8.977 H 16.472 V 7.766 H 11.238 V 8.901 L 9.216,8.61 C 9.235,8.463 9.254,8.316 9.271,8.166 z"
     id="path7-6"
     inkscape:connector-curvature="0"
     clip-path="url(#clipPath3114)"
     style="fill:#3771c8" /><path
     transform="translate(0.00182052,-0.00333758)"
     d="M 7.414,10.79 9.56,11.159 C 9.397,10.628 9.289,10.071 9.244,9.496 l 1.995,0.287 v 1.219 h 5.234 V 10.14 h 0.924 v 0.862 H 22.63 V 9.814 l 1.666,-0.258 c -0.018,0.404 -0.069,0.832 -0.148,1.264 l 1.658,-0.312 C 25.452,6.045 23.743,0 16.645,0 15.637,0 14.462,0.124 13.952,0.354 13.44,0.583 13.348,1.106 13.018,1.217 12.674,1.333 12.186,1.286 11.883,1.433 7.155,3.71 7.32,9.261 7.32,9.261 l 0.094,1.529 z m 8.478,-0.37 H 11.82 V 8.347 h 4.072 v 2.073 z m 6.156,0 h -4.07 V 8.347 h 4.07 V 10.42 z M 9.271,8.166 c 2.104,-0.143 4.48,-1.8 4.665,-4.108 2.663,2.205 6.437,2.313 9.581,2.594 0.393,0.184 0.679,0.975 0.76,2.023 L 22.63,8.93 V 7.766 H 17.396 V 8.977 H 16.472 V 7.766 H 11.238 V 8.901 L 9.216,8.61 C 9.235,8.463 9.254,8.316 9.271,8.166 z"
     id="path7-9"
     inkscape:connector-curvature="0"
     clip-path="url(#clipPath4059)"
     style="fill:#003380" /><path
     transform="translate(-0.00571661,0.00211142)"
     d="M 7.414,10.79 9.56,11.159 C 9.397,10.628 9.289,10.071 9.244,9.496 l 1.995,0.287 v 1.219 h 5.234 V 10.14 h 0.924 v 0.862 H 22.63 V 9.814 l 1.666,-0.258 c -0.018,0.404 -0.069,0.832 -0.148,1.264 l 1.658,-0.312 C 25.452,6.045 23.743,0 16.645,0 15.637,0 14.462,0.124 13.952,0.354 13.44,0.583 13.348,1.106 13.018,1.217 12.674,1.333 12.186,1.286 11.883,1.433 7.155,3.71 7.32,9.261 7.32,9.261 l 0.094,1.529 z m 8.478,-0.37 H 11.82 V 8.347 h 4.072 v 2.073 z m 6.156,0 h -4.07 V 8.347 h 4.07 V 10.42 z M 9.271,8.166 c 2.104,-0.143 4.48,-1.8 4.665,-4.108 2.663,2.205 6.437,2.313 9.581,2.594 0.393,0.184 0.679,0.975 0.76,2.023 L 22.63,8.93 V 7.766 H 17.396 V 8.977 H 16.472 V 7.766 H 11.238 V 8.901 L 9.216,8.61 C 9.235,8.463 9.254,8.316 9.271,8.166 z"
     id="path7-62"
     inkscape:connector-curvature="0"
     clip-path="url(#clipPath4113)"
     style="fill:#003380" /><text
     xml:space="preserve"
     style="font-size:3.55162096px;font-style:normal;font-variant:normal;font-weight:normal;font-stretch:normal;line-height:125%;letter-spacing:0px;word-spacing:0px;fill:#916f6f;fill-opacity:1;stroke:none;font-family:Ubuntu;-inkscape-font-specification:Ubuntu"
     x="16.7096"
     y="19.993338"
     id="text4206"
     sodipodi:linespacing="125%"
     transform="matrix(0.93043499,-0.14827153,0.12473815,1.0548882,0,0)"><tspan
       sodipodi:role="line"
       id="tspan4208"
       x="16.7096"
       y="19.993338">leçon</tspan></text>
</svg>